<?xml version="1.0" encoding="utf-8"?>
<!-- Generator: Adobe Illustrator 24.3.0, SVG Export Plug-In . SVG Version: 6.00 Build 0)  -->
<svg version="1.1" id="Layer_1" xmlns="http://www.w3.org/2000/svg" xmlns:xlink="http://www.w3.org/1999/xlink" x="0px" y="0px"
	 viewBox="0 0 847 859.1" style="enable-background:new 0 0 847 859.1;" xml:space="preserve">
<g>
	<path d="M423,21c222,0,402,180,402,402S645,825,423,825S21,645,21,423S201,21,423,21z M334,519l298-298c6-6,15-6,21,0l37,37
		c6,6,6,16,0,22L345,625c-6,6-16,6-22,0L156,458c-6-6-6-15,0-21l37-37c6-6,16-6,22,0L334,519z M423,45C214,45,45,214,45,423
		s169,379,378,379s379-170,379-379S632,45,423,45z"/>
</g>
</svg>
